<svg width="22" height="28" viewBox="0 0 22 28" fill="none" xmlns="http://www.w3.org/2000/svg">
<path d="M21 11.4001C21 17.8911 14.0762 24.6512 11.7512 26.739C11.5347 26.9084 11.271 27 11 27C10.729 27 10.4653 26.9084 10.2488 26.739C7.92375 24.6512 1 17.8911 1 11.4001C1 8.64184 2.05357 5.99653 3.92893 4.04613C5.8043 2.09572 8.34784 1 11 1C13.6522 1 16.1957 2.09572 18.0711 4.04613C19.9464 5.99653 21 8.64184 21 11.4001Z" fill="#B2FF53" stroke="black" stroke-linecap="round" stroke-linejoin="round"/>
<path d="M11 13.9412V11.8824L9.2 10.1176L11.6 8.35294L12.8 10.1176H14M17 13.9412C17 15.0782 16.0598 16 14.9 16C13.7402 16 12.8 15.0782 12.8 13.9412C12.8 12.8041 13.7402 11.8824 14.9 11.8824C16.0598 11.8824 17 12.8041 17 13.9412ZM9.2 13.9412C9.2 15.0782 8.2598 16 7.1 16C5.9402 16 5 15.0782 5 13.9412C5 12.8041 5.9402 11.8824 7.1 11.8824C8.2598 11.8824 9.2 12.8041 9.2 13.9412ZM13.4 6.58824C13.4 6.91311 13.1314 7.17647 12.8 7.17647C12.4686 7.17647 12.2 6.91311 12.2 6.58824C12.2 6.26336 12.4686 6 12.8 6C13.1314 6 13.4 6.26336 13.4 6.58824Z" stroke="black" stroke-linecap="round" stroke-linejoin="round"/>
</svg>
