<svg width="22" height="28" viewBox="0 0 22 28" fill="none" xmlns="http://www.w3.org/2000/svg">
<path d="M21 11.4001C21 17.8911 14.0762 24.6512 11.7512 26.739C11.5347 26.9084 11.271 27 11 27C10.729 27 10.4653 26.9084 10.2488 26.739C7.92375 24.6512 1 17.8911 1 11.4001C1 8.64184 2.05357 5.99653 3.92893 4.04613C5.8043 2.09572 8.34784 1 11 1C13.6522 1 16.1957 2.09572 18.0711 4.04613C19.9464 5.99653 21 8.64184 21 11.4001Z" fill="#00A2FF" fill-opacity="0.72" stroke="black" stroke-linecap="round" stroke-linejoin="round"/>
<path d="M11 12.2C11.675 12.2 12.2222 11.6627 12.2222 11C12.2222 10.3373 11.675 9.8 11 9.8C10.325 9.8 9.77778 10.3373 9.77778 11C9.77778 11.6627 10.325 12.2 11 12.2ZM11 12.2L9.16667 17M11 12.2L12.8333 17M11 5V7.4M7.82222 12.8L5.68333 14M16.3167 8L14.1778 9.2M7.82222 9.2L5.68333 8M16.3167 14L14.1778 12.8M8.55556 17H13.4444M14.6667 15.02C15.4969 14.2909 16.0821 13.3315 16.3448 12.2687C16.6075 11.2059 16.5354 10.0899 16.1379 9.06824C15.7405 8.04659 15.0364 7.16752 14.119 6.54733C13.2015 5.92714 12.1139 5.59508 11 5.59508C9.88611 5.59508 8.79848 5.92714 7.88102 6.54733C6.96355 7.16752 6.25951 8.04659 5.86205 9.06824C5.46459 10.0899 5.39245 11.2059 5.65517 12.2687C5.91789 13.3315 6.50309 14.2909 7.33333 15.02" stroke="black" stroke-linecap="round" stroke-linejoin="round"/>
</svg>
