<svg width="22" height="28" viewBox="0 0 22 28" fill="none" xmlns="http://www.w3.org/2000/svg">
<path d="M21 11.4001C21 17.8911 14.0762 24.6512 11.7512 26.739C11.5347 26.9084 11.271 27 11 27C10.729 27 10.4653 26.9084 10.2488 26.739C7.92375 24.6512 1 17.8911 1 11.4001C1 8.64184 2.05357 5.99653 3.92893 4.04613C5.8043 2.09572 8.34784 1 11 1C13.6522 1 16.1957 2.09572 18.0711 4.04613C19.9464 5.99653 21 8.64184 21 11.4001Z" fill="#F7A823" stroke="black" stroke-linecap="round" stroke-linejoin="round"/>
<path d="M12.9803 6L11.8303 7.15C11.5555 7.43039 11.4015 7.80737 11.4015 8.2C11.4015 8.59263 11.5555 8.96961 11.8303 9.25L12.7303 10.15C13.0107 10.4248 13.3877 10.5788 13.7803 10.5788C14.1729 10.5788 14.5499 10.4248 14.8303 10.15L15.9803 9M12.4803 12.5L6.63031 6.65C6.43075 6.84553 6.27221 7.07891 6.16398 7.33648C6.05575 7.59404 6 7.87062 6 8.15C6 8.42938 6.05575 8.70596 6.16398 8.96352C6.27221 9.22109 6.43075 9.45447 6.63031 9.65L10.2803 13.3C10.6303 13.65 11.2803 13.65 11.6803 13.3L12.4803 12.5ZM12.4803 12.5L15.9803 16M6.03031 15.9L9.23031 12.75M14.4803 7.5L10.9803 11" stroke="black" stroke-linecap="round" stroke-linejoin="round"/>
</svg>
