<svg width="22" height="28" viewBox="0 0 22 28" fill="none" xmlns="http://www.w3.org/2000/svg">
<path d="M21 11.4001C21 17.8911 14.0762 24.6512 11.7512 26.739C11.5347 26.9084 11.271 27 11 27C10.729 27 10.4653 26.9084 10.2488 26.739C7.92375 24.6512 1 17.8911 1 11.4001C1 8.64184 2.05357 5.99653 3.92893 4.04613C5.8043 2.09572 8.34784 1 11 1C13.6522 1 16.1957 2.09572 18.0711 4.04613C19.9464 5.99653 21 8.64184 21 11.4001Z" fill="#C933E7" stroke="black" stroke-linecap="round" stroke-linejoin="round"/>
<path d="M11.6 8V9M11.6 14V15M11.6 11V12M5 10C5.47739 10 5.93523 10.158 6.27279 10.4393C6.61036 10.7206 6.8 11.1022 6.8 11.5C6.8 11.8978 6.61036 12.2794 6.27279 12.5607C5.93523 12.842 5.47739 13 5 13V14C5 14.2652 5.12643 14.5196 5.35147 14.7071C5.57652 14.8946 5.88174 15 6.2 15H15.8C16.1183 15 16.4235 14.8946 16.6485 14.7071C16.8736 14.5196 17 14.2652 17 14V13C16.5226 13 16.0648 12.842 15.7272 12.5607C15.3896 12.2794 15.2 11.8978 15.2 11.5C15.2 11.1022 15.3896 10.7206 15.7272 10.4393C16.0648 10.158 16.5226 10 17 10V9C17 8.73478 16.8736 8.48043 16.6485 8.29289C16.4235 8.10536 16.1183 8 15.8 8H6.2C5.88174 8 5.57652 8.10536 5.35147 8.29289C5.12643 8.48043 5 8.73478 5 9V10Z" stroke="black" stroke-linecap="round" stroke-linejoin="round"/>
</svg>
