<svg width="22" height="28" viewBox="0 0 22 28" fill="none" xmlns="http://www.w3.org/2000/svg">
<path d="M21 11.4001C21 17.8911 14.0762 24.6512 11.7512 26.739C11.5347 26.9084 11.271 27 11 27C10.729 27 10.4653 26.9084 10.2488 26.739C7.92375 24.6512 1 17.8911 1 11.4001C1 8.64184 2.05357 5.99653 3.92893 4.04613C5.8043 2.09572 8.34784 1 11 1C13.6522 1 16.1957 2.09572 18.0711 4.04613C19.9464 5.99653 21 8.64184 21 11.4001Z" fill="#E13939" stroke="black" stroke-linecap="round" stroke-linejoin="round"/>
<path d="M12.8333 8.2979C12.6437 8.2979 12.4566 8.26083 12.287 8.1896L9.713 7.1083C9.54336 7.03708 9.35631 7 9.16667 7M12.8333 8.2979C13.023 8.2979 13.21 8.26083 13.3797 8.1896L15.6157 7.25001C15.709 7.21086 15.8126 7.19241 15.9167 7.19639C16.0208 7.20037 16.122 7.22667 16.2106 7.27277C16.2992 7.31887 16.3723 7.38325 16.423 7.45979C16.4736 7.53633 16.5002 7.62248 16.5 7.71005V14.2636C16.4999 14.3589 16.4683 14.4523 16.4086 14.5334C16.3489 14.6145 16.2635 14.68 16.1621 14.7226L13.3797 15.8917C13.21 15.9629 13.023 16 12.8333 16M12.8333 8.2979V16M12.8333 16C12.6437 16 12.4566 15.9629 12.287 15.8917L9.713 14.8104C9.54336 14.7392 9.35631 14.7021 9.16667 14.7021M9.16667 14.7021C8.97702 14.7021 8.78998 14.7392 8.62033 14.8104L6.38428 15.75C6.29099 15.7892 6.18733 15.8076 6.08316 15.8036C5.97898 15.7996 5.87776 15.7733 5.78913 15.7271C5.70049 15.6809 5.62739 15.6165 5.57679 15.5399C5.52618 15.4633 5.49974 15.3771 5.5 15.2894V8.73642C5.50006 8.64109 5.53171 8.54766 5.59139 8.46659C5.65108 8.38552 5.73645 8.32001 5.83795 8.2774L8.62033 7.1083C8.78998 7.03708 8.97702 7 9.16667 7M9.16667 14.7021V7" stroke="black" stroke-linecap="round" stroke-linejoin="round"/>
</svg>
